<svg xmlns="http://www.w3.org/2000/svg" width="512" height="95.25581395348837" viewBox="-2 -2 86 16"><path d="M0 0v12 h12v-12l-6 6Z" fill="#F44336" opacity="60%"/><path d="M0 12l12 -12l0 12Z" fill="#F44336" opacity="60%"/><path d="M26 0v8 h-8Z" fill="#FF9800" opacity="60%"/><path d="M14 12h12v-12Z" fill="#FF9800" opacity="60%"/><path d="M28 0h8a4 4 0 0 1 0 8h-8Z" fill="#3F51B5" opacity="60%"/><path d="M28 0l12 12h-12Z" fill="#3F51B5" opacity="60%"/><path d="M42 0h12l-12 12Z" fill="#03A9F4" opacity="60%"/><path d="M42 0l12 12h-12Z" fill="#03A9F4" opacity="60%"/><path d="M56 0v6a6 6 0 0 0 12 0v-6Z" fill="#009688" opacity="60%"/><path d="M70 0h8a4 4 0 0 1 0 8h-8Z" fill="#607D8B" opacity="60%"/><path d="M70 0h6v12h-6Z" fill="#607D8B" opacity="60%"/></svg>
